# xmcd
#
# Track frame offsets: 
#        150
#        15758
#        27553
#        45710
#        58848
#        75033
#        87960
#        101445
#        117625
#        133850
#
# Disc length: 1942 seconds
#
# Revision: 2
# Processed by: cddbd v1.5.1PL0 Copyright (c) Steve Scherf et al.
# Submitted via: ExactAudioCopy v0.95a5
#
DISCID=7607940a
DTITLE=Dude Mowrey - Dude Mowrey
DYEAR=1993
DGENRE=Country
TTITLE0=Maybe You Were the One
TTITLE1=Dr. Wurlitzer
TTITLE2=Walk Away
TTITLE3=Somewhere In Between
TTITLE4=Happy Ever After (Comes One Day At A Time)
TTITLE5=What Kind Of Memories Remain
TTITLE6=Hold On Elroy
TTITLE7=View From The Bottom
TTITLE8=I'll Never Listen To That Fool Again
TTITLE9=Turn For The Worse
EXTD=
EXTT0=
EXTT1=
EXTT2=
EXTT3=
EXTT4=
EXTT5=
EXTT6=
EXTT7=
EXTT8=
EXTT9=
PLAYORDER=
